<?xml version="1.0" standalone="no"?>
<!DOCTYPE svg PUBLIC "-//W3C//DTD SVG 20010904//EN"
 "http://www.w3.org/TR/2001/REC-SVG-20010904/DTD/svg10.dtd">
<svg version="1.0" xmlns="http://www.w3.org/2000/svg"
 width="700.000000pt" height="700.000000pt" viewBox="0 0 700.000000 700.000000"
 preserveAspectRatio="xMidYMid meet">
<metadata>
Created by potrace 1.11, written by Peter Selinger 2001-2013
</metadata>
<g transform="translate(0.000000,700.000000) scale(0.100000,-0.100000)"
fill="#000000" stroke="none">
<path d="M3455 6991 c-30 -13 -45 -33 -140 -191 -146 -241 -476 -783 -500
-820 -26 -40 -289 -470 -315 -515 -10 -16 -54 -88 -98 -160 -154 -250 -297
-485 -312 -512 -9 -16 -33 -55 -54 -88 -22 -33 -47 -73 -56 -90 -18 -32 -152
-251 -231 -378 -27 -43 -49 -82 -49 -86 0 -5 -3 -11 -8 -13 -6 -2 -76 -116
-137 -220 -5 -10 -93 -153 -195 -318 -102 -166 -192 -313 -201 -328 -36 -61
-524 -861 -554 -907 -18 -27 -102 -165 -187 -305 -140 -229 -289 -474 -340
-555 -10 -16 -30 -55 -45 -85 -55 -112 -28 -276 58 -360 49 -47 254 -178 459
-294 134 -76 491 -247 647 -310 389 -159 779 -275 1163 -347 58 -11 114 -22
125 -24 31 -6 235 -35 280 -39 22 -3 60 -7 85 -10 313 -39 916 -44 1235 -10
908 96 1686 347 2474 799 9 6 82 51 161 100 230 143 275 203 274 360 0 106 3
99 -154 355 -59 96 -164 267 -232 380 -69 113 -199 324 -288 470 -168 273
-313 511 -341 558 -9 15 -227 371 -484 792 -969 1583 -1148 1876 -1165 1905
-9 17 -138 228 -287 470 -148 242 -311 509 -362 594 -112 183 -149 213 -226
182z"/>
</g>
</svg>
