<svg xmlns="http://www.w3.org/2000/svg" width="32" height="32" viewBox="0 0 8.467 8.467"><g transform="translate(323.903 -549.19)"><path style="line-height:normal;font-variant-ligatures:normal;font-variant-position:normal;font-variant-caps:normal;font-variant-numeric:normal;font-variant-alternates:normal;font-feature-settings:normal;text-indent:0;text-align:start;text-decoration-line:none;text-decoration-style:solid;text-decoration-color:#000;text-transform:none;text-orientation:mixed;shape-padding:0;isolation:auto;mix-blend-mode:normal" fill="#586597" d="m -322.67433,554.58836 c -0.21784,0 -0.39695,0.18074 -0.39695,0.39819 0,0.21745 0.17912,0.39626 0.39695,0.39626 h 0.19163 l 0.35783,0.5973 a 0.13245986,0.13222715 0 0 0 0.11343,0.0645 h 5.03323 a 0.13245986,0.13222715 0 0 0 0.11341,-0.0645 l 0.3598,-0.5973 h 0.18967 c 0.21784,0 0.39695,-0.17881 0.39695,-0.39626 0,-0.21745 -0.17911,-0.39819 -0.39695,-0.39819 z" color="#000" font-family="sans-serif" font-weight="400" overflow="visible" white-space="normal"/><path style="line-height:normal;font-variant-ligatures:normal;font-variant-position:normal;font-variant-caps:normal;font-variant-numeric:normal;font-variant-alternates:normal;font-feature-settings:normal;text-indent:0;text-align:start;text-decoration-line:none;text-decoration-style:solid;text-decoration-color:#000;text-transform:none;text-orientation:mixed;shape-padding:0;isolation:auto;mix-blend-mode:normal" fill="#d7edf2" d="m -322.67433,554.85382 h 6.359 c 0.0756,0 0.13101,0.0573 0.13101,0.13273 0,0.0756 -0.0554,0.13079 -0.13101,0.13079 h -0.26594 a 0.13245986,0.13222715 0 0 0 -0.11341,0.0645 l -0.35784,0.5973 h -4.88463 l -0.35783,-0.5973 a 0.13245986,0.13222715 0 0 0 -0.11342,-0.0645 h -0.26593 c -0.0757,0 -0.13101,-0.0553 -0.13101,-0.13079 0,-0.0755 0.0554,-0.13273 0.13101,-0.13273 z" color="#000" font-family="sans-serif" font-weight="400" overflow="visible" white-space="normal"/><path style="line-height:normal;font-variant-ligatures:normal;font-variant-position:normal;font-variant-caps:normal;font-variant-numeric:normal;font-variant-alternates:normal;font-feature-settings:normal;text-indent:0;text-align:start;text-decoration-line:none;text-decoration-style:solid;text-decoration-color:#000;text-transform:none;text-orientation:mixed;shape-padding:0;isolation:auto;mix-blend-mode:normal" fill="#91a6b8" d="m -321.74551,555.11734 a 0.13297057,0.13273696 0 1 0 0,0.26547 h 4.37034 a 0.13297057,0.13273696 0 1 0 0,-0.26547 z" color="#000" font-family="sans-serif" font-weight="400" overflow="visible" white-space="normal"/><g transform="translate(-.094 .182)"><path fill="#f9bc90" d="m -166.02318,388.10931 c 0.0921,-0.18628 0.1088,-0.38931 0.0779,-0.58675 -0.008,-0.0494 -0.0185,-0.0984 -0.0317,-0.14669 l 0.0276,-0.0327 c 0.22558,-1.13965 -0.62477,-2.24201 -2.01844,-2.61663 -1.39367,-0.37463 -2.93005,0.0862 -3.64687,1.09376 l -0.18906,0.0142 c -0.23235,-0.0153 -0.42082,-0.0311 -0.51031,-0.0464 -0.35793,-0.061 -0.68471,0.0392 -0.72986,0.22389 -0.0452,0.18463 0.2084,0.38375 0.56632,0.44474 0.0592,0.0101 0.14171,0.0292 0.2369,0.0566 l -0.0258,0.007 c 0,0 -0.57173,0.33749 -0.52625,0.59057 0.0499,0.27791 0.66146,0.52915 0.66146,0.52915 0,0 0.0311,0.074 0.009,0.17122 -0.0221,0.0972 -0.0183,0.19963 0.0116,0.30351 z" transform="translate(-150.154 166.291)"/><path style="line-height:normal;font-variant-ligatures:normal;font-variant-position:normal;font-variant-caps:normal;font-variant-numeric:normal;font-variant-alternates:normal;font-feature-settings:normal;text-indent:0;text-align:start;text-decoration-line:none;text-decoration-style:solid;text-decoration-color:#000;text-transform:none;text-orientation:mixed;shape-padding:0;isolation:auto;mix-blend-mode:normal" fill="#586597" d="M-322.43773 551.8146c-.19761-.0336-.38643-.0247-.5436.0234-.15717.0482-.29753.14028-.33633.29866-.0388.1584.0523.30555.17794.40406.12567.0985.29713.16939.49472.203.20888.0355.82314.23192 1.06961.4841.0101.0104.008.007.0188.0212-.28834.0694-.52193.19961-.66416.35742-.17598.1953-.2332.45461-.1623.70077.0465.17464.30924.0979.25421-.0742-.0488-.16911-.016-.31404.10559-.44896.10585-.11746.31834-.24066.60686-.2983.0381.0811.0681.16208.0971.24559.0676.19439.10559.35917.10559.35917.0404.17177.29856.1112.25811-.0606 0 0-.0411-.17816-.11341-.38649-.0871-.22194-.14402-.40909-.31877-.6012-.33802-.34583-.94744-.51518-1.21235-.56022-.16076-.0274-.2959-.0859-.37544-.14835-.0796-.0624-.0924-.1066-.086-.13274.006-.0261.0511-.0764.15838-.10931.1073-.0329.26163-.043.42238-.0156.20985.0357.76869.0643 1.30034.0897.53166.0255 1.01877.043 1.01877.043.001.00002.003.00002.004 0 .73304 0 1.32577.59167 1.32577 1.32343 0 .0914-.01.17949-.0273.26547-.0176.0861-.0448.16892-.0782.24791-.0691.16267.17531.26612.24443.10344.0402-.0949.0727-.19532.0938-.29865.0212-.1033.0312-.20882.0312-.31817 0-.87467-.71355-1.58696-1.58975-1.58696-.006-.0002-.48222-.0177-1.00899-.043-.52984-.0254-1.12253-.0626-1.27103-.0878zM-317.92659 551.87901c-.0426.004-.0805.0291-.10168.0664-.29181.50454-.11825 1.15317.38717 1.44447.12633.0728.26217.11581.39891.13273.0699.009.13849.0104.20532.006.18596-.003.16705-.28543-.0176-.26352-.052.003-.10289.003-.15253-.004-.00067-.00001-.001-.00001-.002 0-.1023-.0127-.20379-.0446-.29918-.0995-.32454-.18705-.48829-.59248-.34249-.97494.11678.0538.31052.14529.55563.28589.35607.20428.74897.48824.88972.72223.18218.30288.28136.69583.12514 1.01112-.0782.15876.16034.27588.23856.11712.21275-.42938.0752-.91236-.13688-1.26487-.19724-.32791-.61486-.60328-.98553-.81593-.37066-.21266-.69808-.35332-.69808-.35332-.0203-.009-.0426-.0121-.0646-.01zm.18381 1.91879c-.0256.002-.0501.0116-.0704.0273l-.35784.26742c-.14216.1067.0182.31946.16035.21276l.35784-.26742c.11286-.0781.0466-.255-.0899-.24009z" color="#000" font-family="sans-serif" font-weight="400" overflow="visible" white-space="normal"/><path style="line-height:normal;font-variant-ligatures:normal;font-variant-position:normal;font-variant-caps:normal;font-variant-numeric:normal;font-variant-alternates:normal;font-feature-settings:normal;text-indent:0;text-align:start;text-decoration-line:none;text-decoration-style:solid;text-decoration-color:#000;text-transform:none;text-orientation:mixed;shape-padding:0;isolation:auto;mix-blend-mode:normal" fill="#586597" d="M-322.47879 552.5622c0 0-.15133.09-.29918.21472-.0739.0624-.14748.13249-.20532.21472-.0579.0823-.10686.18292-.086.29865.0403.22453.2407.35471.41064.45871.16995.104.33242.16982.33242.16982l.0997-.24595c0 0-.14463-.0593-.29332-.1503-.14868-.0909-.27786-.22591-.28744-.27913-.002-.0107.004-.0474.041-.0995.0366-.0522.0969-.11236.16035-.16592.12696-.10712.26202-.18739.26202-.18739zM-318.04196 550.76442c-1.45205-.40342-3.05998.0629-3.82478 1.13606a.13245986.13222715 0 1 0 .21509.15421c.68263-.95786 2.1878-1.41004 3.5393-1.03456 1.35149.3755 2.12692 1.43386 1.88501 2.50049a.13245986.13222715 0 1 0 .25812.0586c.27721-1.22232-.62069-2.41132-2.07274-2.81476z" color="#000" font-family="sans-serif" font-weight="400" overflow="visible" white-space="normal"/></g></g></svg>