<svg xmlns="http://www.w3.org/2000/svg" data-name="Layer 1" viewBox="0 0 512 512"><polygon fill="#c7ad92" points="473 449.502 282.703 449.502 286 494.502 219.702 495.695 229.297 449.502 39 449.502 99 254.502 413 254.502 473 449.502"/><polyline fill="#b79b7b" points="413 254.5 384.923 309.501 428 449.5"/><line x1="127.08" x2="84" y1="309.502" y2="449.502" fill="#b79b7b"/><path fill="#c7ad92" d="M421.62457,7.5H90.37543a6,6,0,0,0-5.989,6.3637L99,254.5H413L427.61354,13.8637A6,6,0,0,0,421.62457,7.5Z"/><path fill="#b79b7b" d="M421.62451,7.49985h-45a6.00021,6.00021,0,0,1,5.989,6.36376L368,254.49985h45L427.61353,13.86361A6.00021,6.00021,0,0,0,421.62451,7.49985Z"/><path fill="#ed4769" d="M75.20246,52.5h154.0947a26.70284,26.70284,0,1,0,53.40568,0h154.0947a6,6,0,0,0,5.6921-7.89737L432.40133,14.33772A10,10,0,0,0,422.9145,7.5H89.0855a10,10,0,0,0-9.48683,6.83772L69.51036,44.60263A6,6,0,0,0,75.20246,52.5Z"/><path fill="#eb304a" d="M442.48975,44.60287,432.40137,14.33774a10.00008,10.00008,0,0,0-9.48682-6.83789h-45a10.00008,10.00008,0,0,1,9.48682,6.83789l10.08838,30.26513a6,6,0,0,1-5.69214,7.897h45A6,6,0,0,0,442.48975,44.60287Z"/><path fill="#ed4769" d="M473,449.5H282.70284a26.70284,26.70284,0,1,1-53.40568,0H39v45a10,10,0,0,0,10,10H463a10,10,0,0,0,10-10Z"/><path fill="#eb304a" d="M428,449.49985v45a9.99988,9.99988,0,0,1-10,10h45a9.99988,9.99988,0,0,0,10-10v-45Z"/><polygon fill="#af8d74" points="99 254.5 127.08 309.502 384.92 309.502 413 254.502 99 254.5"/><polygon fill="#b79b7b" points="473 449.502 428 449.502 413 254.502 473 449.502"/><polygon fill="#b79b7b" points="127.08 309.502 84 449.502 39 449.502 99 254.502 127.08 309.502"/><path d="M178.19336,116.61166h-.10352a7.5,7.5,0,0,0,0,15h.10352a7.5,7.5,0,0,0,0-15Zm31.14355,79h-.10351a7.5,7.5,0,0,0,0,15h.10351a7.5,7.5,0,0,0,0-15Zm-31.14355,0h-.10352a7.5,7.5,0,0,0,0,15h.10352a7.5,7.5,0,0,0,0-15Zm31.14355-79h-.10351a7.5,7.5,0,0,0,0,15h.10351a7.5,7.5,0,0,0,0-15ZM147,157.9476a7.522,7.522,0,1,0-7.5-7.54395v.08789A7.46206,7.46206,0,0,0,147,157.9476Zm0,26.3291a7.522,7.522,0,1,0-7.5-7.54394v.08789A7.46205,7.46205,0,0,0,147,184.2767Zm0-67.665a7.49943,7.49943,0,0,0-7.5,7.5v.04981a7.51226,7.51226,0,1,0,7.5-7.54981Zm93.48047,79H240.377a7.5,7.5,0,0,0,0,15h.10352a7.5,7.5,0,0,0,0-15ZM147,195.58725a7.51221,7.51221,0,0,0,0,15.02441h.0498A7.51228,7.51228,0,0,0,147,195.58725Zm124.623-78.97559h-.10352a7.5,7.5,0,0,0,0,15h.10352a7.5,7.5,0,0,0,0-15ZM365,195.58725a7.53661,7.53661,0,0,0-7.52441,7.52441,7.51221,7.51221,0,0,0,15.02441,0v-.0498A7.4778,7.4778,0,0,0,365,195.58725Zm0-26.31153a7.522,7.522,0,1,0,7.5,7.54395v-.08789A7.46206,7.46206,0,0,0,365,169.27572Zm0-26.3291a7.522,7.522,0,1,0,7.5,7.54395v-.08789A7.46206,7.46206,0,0,0,365,142.94662Zm0-26.335h-.0498a7.52494,7.52494,0,1,0,.0498,0ZM480.46216,448.75131c-.01392-.14062-.0398-.27734-.06153-.41553-.01635-.103-.02636-.20654-.04736-.31006a7.40526,7.40526,0,0,0-.20532-.79638L420.56885,253.597,432.32812,60.00033h4.46973a13.49953,13.49953,0,0,0,12.80664-17.76855L439.5166,11.96518A17.48,17.48,0,0,0,422.91406.00033H89.08594A17.4796,17.4796,0,0,0,72.4834,11.96615L62.39648,42.22983a13.49916,13.49916,0,0,0,12.80567,17.7705h4.46973L91.43115,253.597,31.85205,447.22934a7.40526,7.40526,0,0,0-.20532.79638c-.021.10352-.031.207-.04736.31006-.02173.13819-.04761.27491-.06153.41553a7.45741,7.45741,0,0,0-.03784.81006v44.939a17.52,17.52,0,0,0,17.5,17.5H463a17.52,17.52,0,0,0,17.5-17.5v-44.939A7.45741,7.45741,0,0,0,480.46216,448.75131Zm-17.61646-6.751H433.53906L392.98535,310.20151l18.2854-35.81885Zm-62.095-180-20.42016,40.001H131.67188l-20.42212-40.001Zm-294.69238-15-11.3584-187H222.625a34.20877,34.20877,0,0,0,66.75,0H417.30005l-11.3584,187Zm26.56079,70.001H379.384l38.46143,124.999H282.70312a7.49944,7.49944,0,0,0-7.5,7.5,19.20312,19.20312,0,0,1-38.40624,0,7.49944,7.49944,0,0,0-7.5-7.5H94.155Zm-55.335-272.001,9.42969-28.291a2.49607,2.49607,0,0,1,2.36621-1.7085l.00976.00049H422.91016l.00976-.00049a2.49646,2.49646,0,0,1,2.36621,1.70752l9.42969,28.292H282.70312a7.49944,7.49944,0,0,0-7.5,7.5,19.20312,19.20312,0,0,1-38.40624,0,7.49944,7.49944,0,0,0-7.5-7.5Zm23.44531,229.38135,18.28809,35.8208L78.46143,442.00033H49.1543ZM465.5,494.50033a2.50231,2.50231,0,0,1-2.5,2.5H49a2.50231,2.50231,0,0,1-2.5-2.5v-37.5H83.96362c.01294,0,.02613.00293.03931.00293.01221,0,.02417-.00293.03662-.00293H222.625a34.20877,34.20877,0,0,0,66.75,0H427.97266l.02441.002.02637-.002H465.5ZM302.7666,116.61166h-.10351a7.5,7.5,0,0,0,0,15h.10351a7.5,7.5,0,0,0,0-15Zm0,79h-.10351a7.5,7.5,0,0,0,0,15h.10351a7.5,7.5,0,0,0,0-15Zm-31.14355,0h-.10352a7.5,7.5,0,0,0,0,15h.10352a7.5,7.5,0,0,0,0-15Zm62.28711,0h-.10352a7.5,7.5,0,0,0,0,15h.10352a7.5,7.5,0,0,0,0-15Zm-93.42969-79H240.377a7.5,7.5,0,0,0,0,15h.10352a7.5,7.5,0,0,0,0-15Zm93.42969,0h-.10352a7.5,7.5,0,0,0,0,15h.10352a7.5,7.5,0,0,0,0-15Z"/></svg>