<svg xmlns="http://www.w3.org/2000/svg" width="32" height="32" viewBox="0 0 8.467 8.467"><g transform="translate(182.394 -272.01)"><path style="line-height:normal;font-variant-ligatures:normal;font-variant-position:normal;font-variant-caps:normal;font-variant-numeric:normal;font-variant-alternates:normal;font-feature-settings:normal;text-indent:0;text-align:start;text-decoration-line:none;text-decoration-style:solid;text-decoration-color:#000;text-transform:none;text-orientation:mixed;shape-padding:0;isolation:auto;mix-blend-mode:normal" d="M-179.10156 278.89258a.13230489.13230489 0 0 0-.0898.043l-.1289.13867a.13264726.13264726 0 1 0 .19336.18164l.1289-.13867a.13230489.13230489 0 0 0-.10351-.22461zM-179.20898 279.38867a.13230489.13230489 0 0 0-.0859.2168l.10156.12305a.1324179.1324179 0 1 0 .20313-.16993l-.10157-.12109a.13230489.13230489 0 0 0-.11718-.0488zM-179.60352 279.41602a.13230489.13230489 0 0 0-.0781.0391l-.10156.10156a.13258252.13258252 0 1 0 .1875.1875l.10156-.10156a.13230489.13230489 0 0 0-.10938-.22656zM-179.70508 278.89844a.13230489.13230489 0 0 0-.082.2207l.10938.125a.13230489.13230489 0 1 0 .19921-.17187l-.10937-.12696a.13230489.13230489 0 0 0-.11719-.0469z" color="#000" font-family="sans-serif" font-weight="400" overflow="visible" white-space="normal"/><path d="M-175.12143 275.52073c-.0452.0452-.12289.0247-.16809-.0205-.0452-.0452-.0503-.13092-.005-.17612.0452-.0452.13602-.0408.18124.004.0452.0452.0371.14702-.008.19221zM-176.06085 273.48694c-.0452.0452-.12289.0247-.16809-.0205-.0452-.0452-.0503-.13092-.005-.17612.0452-.0452.13602-.0408.18124.004.0452.0452.0371.14703-.008.19222z"/><path style="line-height:normal;font-variant-ligatures:normal;font-variant-position:normal;font-variant-caps:normal;font-variant-numeric:normal;font-variant-alternates:normal;font-feature-settings:normal;text-indent:0;text-align:start;text-decoration-line:none;text-decoration-style:solid;text-decoration-color:#000;text-transform:none;text-orientation:mixed;shape-padding:0;isolation:auto;mix-blend-mode:normal" d="M-175.27148 273.72852a.13230489.13230489 0 0 0-.11133.13867l.006.18945a.13230489.13230489 0 1 0 .26367-.008l-.006-.19141a.13230489.13230489 0 0 0-.15234-.1289zM-174.98438 274.15039a.13230489.13230489 0 0 0 .002.26367l.1582.0156a.13235492.13235492 0 1 0 .0234-.26367l-.1582-.0137a.13230489.13230489 0 0 0-.0254-.002zM-175.24609 274.44727a.13230489.13230489 0 0 0-.11719.13476v.14258a.13230489.13230489 0 1 0 .26367 0v-.14258a.13230489.13230489 0 0 0-.14648-.13476zM-175.68359 274.1543a.13230489.13230489 0 0 0 .008.26367l.16601.0117a.13230489.13230489 0 1 0 .0195-.26367l-.16797-.0117a.13230489.13230489 0 0 0-.0254 0z" color="#000" font-family="sans-serif" font-weight="400" overflow="visible" white-space="normal"/><path style="line-height:normal;font-variant-ligatures:normal;font-variant-position:normal;font-variant-caps:normal;font-variant-numeric:normal;font-variant-alternates:normal;font-feature-settings:normal;text-indent:0;text-align:start;text-decoration-line:none;text-decoration-style:solid;text-decoration-color:#000;text-transform:none;text-orientation:mixed;shape-padding:0;isolation:auto;mix-blend-mode:normal" d="m 579.39453,550.64258 c -0.69948,0.0639 -1.39878,0.35349 -2.07422,0.73828 -1.3508,0.76996 -2.62844,1.95954 -3.50586,2.87891 -0.87431,0.91612 -1.87809,2.30474 -2.50976,3.68359 -0.31597,0.68942 -0.54086,1.37975 -0.58985,2.0293 -0.0491,0.64955 0.0998,1.30416 0.58985,1.75 0.0402,0.0366 0.0881,0.0562 0.13086,0.0879 0.01,0.0113 1.00853,1.20261 2.34961,2.57031 1.34747,1.3742 3.00669,2.92397 4.47265,3.66797 1.75552,0.89095 3.90999,1.62765 5.96485,1.16601 0.47924,-0.10771 0.9369,-0.29001 1.37109,-0.51953 l 4.66016,4.55078 c -0.0661,0.13078 -0.0848,0.16354 -0.16797,0.36914 -0.16366,0.40381 -0.36509,0.86965 -0.24414,1.41016 0.21467,0.95989 0.92199,1.92483 1.9707,2.16211 1.006,0.22791 2.03162,-0.29015 2.60547,-1.0625 0.33335,-0.44871 0.33014,-0.95627 0.33203,-1.38672 5.7e-4,-0.1406 -0.008,-0.14411 -0.0156,-0.25976 0.14437,-0.008 0.16019,0.002 0.34765,-0.0215 0.47505,-0.059 1.0242,-0.13341 1.46875,-0.49609 0.70583,-0.57612 1.2892,-1.53409 1.08594,-2.54492 -0.22224,-1.10438 -1.19411,-1.98585 -2.28125,-2.17774 -0.61894,-0.10923 -1.13124,0.18897 -1.56445,0.43555 -0.23774,0.13531 -0.2823,0.18103 -0.42188,0.27929 l -4.93555,-4.0957 c 0.89525,-1.59837 1.31574,-3.56392 0.97852,-5.375 -0.34696,-1.86368 -1.79122,-3.20343 -2.85742,-4.45117 -1.54105,-1.80333 -5.05678,-4.56749 -5.07031,-4.57813 -0.0414,-0.0479 -0.0727,-0.10123 -0.11915,-0.14648 -0.55041,-0.53594 -1.27118,-0.72786 -1.9707,-0.66406 z" color="#000" font-family="sans-serif" font-weight="400" overflow="visible" transform="matrix(.26458 0 0 .26458 -332.728 127.016)" white-space="normal"/><path fill="#f18a4a" style="line-height:normal;font-variant-ligatures:normal;font-variant-position:normal;font-variant-caps:normal;font-variant-numeric:normal;font-variant-alternates:normal;font-feature-settings:normal;text-indent:0;text-align:start;text-decoration-line:none;text-decoration-style:solid;text-decoration-color:#000;text-transform:none;text-orientation:mixed;shape-padding:0;isolation:auto;mix-blend-mode:normal" d="m 579.82422,551.63477 c 0.3227,0.0245 0.59347,0.14129 0.84766,0.38867 0.30803,0.29971 0.40051,0.61686 0.36914,1.05468 -0.0302,0.43786 -0.22651,0.98209 -0.53125,1.54297 -0.60919,1.12173 -1.6436,2.31285 -2.42188,3.14453 -0.81774,0.87391 -2.1592,1.97647 -3.41797,2.67969 -0.62937,0.3515 -1.24509,0.59982 -1.72656,0.6875 -0.48147,0.0877 -0.77888,0.022 -0.9668,-0.14843 -0.21052,-0.19163 -0.30077,-0.47349 -0.26562,-0.9375 0.034,-0.46398 0.21731,-1.06221 0.50195,-1.6836 0.56939,-1.24282 1.53948,-2.58796 2.32422,-3.41016 0.83656,-0.87658 2.0872,-2.01836 3.28516,-2.70117 0.59898,-0.34129 1.17946,-0.56925 1.66211,-0.61328 0.12066,-0.011 0.23227,-0.0121 0.33984,-0.004 z" color="#000" font-family="sans-serif" font-weight="400" overflow="visible" transform="matrix(.26458 0 0 .26458 -332.728 127.016)" white-space="normal"/><path fill="#f7a83e" style="line-height:normal;font-variant-ligatures:normal;font-variant-position:normal;font-variant-caps:normal;font-variant-numeric:normal;font-variant-alternates:normal;font-feature-settings:normal;text-indent:0;text-align:start;text-decoration-line:none;text-decoration-style:solid;text-decoration-color:#000;text-transform:none;text-orientation:mixed;shape-padding:0;isolation:auto;mix-blend-mode:normal" d="m 582.0293,553.20312 c 1.13405,0.9367 2.80226,2.34922 3.76562,3.47657 1.11485,1.30465 2.36721,2.54931 2.63477,3.98633 0.31067,1.66903 -0.15078,3.61775 -1.08399,5.07226 -0.75598,1.17823 -2.02976,2.2067 -3.34375,2.50195 -1.67637,0.37645 -3.63048,-0.23846 -5.28515,-1.07812 -1.22616,-0.6223 -2.90478,-2.13253 -4.22266,-3.47656 -0.58087,-0.5924 -1.05542,-1.11485 -1.45117,-1.55664 0.0281,-0.004 0.056,-0.003 0.084,-0.008 0.6542,-0.11905 1.34164,-0.41944 2.03125,-0.80468 1.37919,-0.7705 2.75882,-1.90785 3.66016,-2.8711 0.79982,-0.85466 1.87919,-2.07122 2.57031,-3.34375 0.33653,-0.61982 0.5841,-1.25865 0.64063,-1.89844 z" color="#000" font-family="sans-serif" font-weight="400" overflow="visible" transform="matrix(.26458 0 0 .26458 -332.728 127.016)" white-space="normal"/><path fill="#d6e5e5" style="line-height:normal;font-variant-ligatures:normal;font-variant-position:normal;font-variant-caps:normal;font-variant-numeric:normal;font-variant-alternates:normal;font-feature-settings:normal;text-indent:0;text-align:start;text-decoration-line:none;text-decoration-style:solid;text-decoration-color:#000;text-transform:none;text-orientation:mixed;shape-padding:0;isolation:auto;mix-blend-mode:normal" d="m 587.89062,566.70703 5.11719,4.25 c 0.17953,0.15194 0.44028,0.15887 0.62696,0.0156 0,0 0.28838,-0.22183 0.65039,-0.42774 0.36207,-0.20598 0.81778,-0.3394 0.89257,-0.32617 0.61062,0.10772 1.35865,0.80277 1.47657,1.38867 0.093,0.46141 -0.27292,1.20655 -0.73047,1.58008 -0.0922,0.0752 -0.56039,0.22279 -0.9668,0.27344 -0.40641,0.0503 -0.75391,0.0508 -0.75391,0.0508 -0.30311,4.5e-4 -0.53556,0.2683 -0.49414,0.56836 0,0 0.0379,0.29632 0.0371,0.65039 -10e-4,0.35376 -0.10371,0.75806 -0.13281,0.79687 -0.33071,0.43953 -1.11236,0.79341 -1.58008,0.6875 -0.50536,-0.11452 -1.08307,-0.80928 -1.21679,-1.40429 -0.0151,-0.0643 0.0553,-0.48278 0.1914,-0.81836 0.13607,-0.33562 0.28711,-0.60547 0.28711,-0.60547 0.11377,-0.19691 0.0813,-0.4456 -0.0801,-0.60547 l -4.75,-4.63672 c 0.54445,-0.41095 1.02574,-0.90218 1.42578,-1.4375 z" color="#000" font-family="sans-serif" font-weight="400" overflow="visible" transform="matrix(.26458 0 0 .26458 -332.728 127.016)" white-space="normal"/><path style="line-height:normal;font-variant-ligatures:normal;font-variant-position:normal;font-variant-caps:normal;font-variant-numeric:normal;font-variant-alternates:normal;font-feature-settings:normal;text-indent:0;text-align:start;text-decoration-line:none;text-decoration-style:solid;text-decoration-color:#000;text-transform:none;text-orientation:mixed;shape-padding:0;isolation:auto;mix-blend-mode:normal" d="m -179.93555,273.57422 c -0.0876,0.008 -0.16669,0.0419 -0.24023,0.084 -0.14708,0.0841 -0.27649,0.20746 -0.36719,0.30274 -0.0944,0.0992 -0.1976,0.24178 -0.26562,0.39062 -0.034,0.0744 -0.0604,0.14844 -0.0664,0.22852 -0.006,0.0795 0.0152,0.17681 0.0859,0.24219 0.0735,0.067 0.1725,0.075 0.25195,0.0605 0.0795,-0.0145 0.15292,-0.0486 0.22656,-0.0898 0.14729,-0.0825 0.28821,-0.19898 0.38477,-0.30274 0.0813,-0.0872 0.19426,-0.21065 0.26953,-0.34961 0.0378,-0.0697 0.0682,-0.14497 0.0742,-0.22851 0.006,-0.0835 -0.0226,-0.18061 -0.0918,-0.24805 -0.0722,-0.0705 -0.17412,-0.0978 -0.26172,-0.0898 z" color="#000" font-family="sans-serif" font-weight="400" overflow="visible" white-space="normal"/><path fill="#fbb738" style="line-height:normal;font-variant-ligatures:normal;font-variant-position:normal;font-variant-caps:normal;font-variant-numeric:normal;font-variant-alternates:normal;font-feature-settings:normal;text-indent:0;text-align:start;text-decoration-line:none;text-decoration-style:solid;text-decoration-color:#000;text-transform:none;text-orientation:mixed;shape-padding:0;isolation:auto;mix-blend-mode:normal" d="m -179.91215,273.83789 c 0.0301,-0.003 0.0364,-3.1e-4 0.0527,0.0156 0.0132,0.0129 0.0136,0.0134 0.0117,0.0391 -0.002,0.0257 -0.016,0.0713 -0.043,0.12109 -0.0539,0.0996 -0.15283,0.21576 -0.22852,0.29688 -0.0743,0.0798 -0.20498,0.18737 -0.32031,0.25195 -0.0577,0.0323 -0.1109,0.0544 -0.14453,0.0605 -0.0336,0.006 -0.0334,-0.002 -0.0274,0.004 0.002,0.002 -0.002,0.006 0,-0.0254 0.002,-0.031 0.0172,-0.0842 0.043,-0.14062 0.0516,-0.1129 0.14606,-0.24404 0.2168,-0.31836 0.0799,-0.084 0.20003,-0.19297 0.30664,-0.25391 0.0533,-0.0305 0.10274,-0.048 0.13281,-0.0508 z" color="#000" font-family="sans-serif" font-weight="400" overflow="visible" white-space="normal"/><path style="line-height:normal;font-variant-ligatures:normal;font-variant-position:normal;font-variant-caps:normal;font-variant-numeric:normal;font-variant-alternates:normal;font-feature-settings:normal;text-indent:0;text-align:start;text-decoration-line:none;text-decoration-style:solid;text-decoration-color:#000;text-transform:none;text-orientation:mixed;shape-padding:0;isolation:auto;mix-blend-mode:normal" d="M-180.59375 275.80664a.06615245.06615245 0 0 0-.041.11328c0 0 .73584.75114 1.17383 1.0293a.06615245.06615245 0 1 0 .0703-.11133c-.40243-.25556-1.14844-1.00976-1.14844-1.00977a.06615245.06615245 0 0 0-.0547-.0215zM-178.53125 273.7207a.06615245.06615245 0 0 0-.0176.004l-.22461.0801a.06615245.06615245 0 1 0 .043.125l.22656-.0801a.06615245.06615245 0 0 0-.0273-.12891zM-178.34375 273.88281a.06615245.06615245 0 0 0-.0176.004l-.33789.10547a.06641745.06641745 0 1 0 .0391.12695l.33985-.10547a.06647137.06647137 0 0 0-.0234-.13086zM-178.2207 274.0625a.06615245.06615245 0 0 0-.006.002l-.33203.0879a.06615245.06615245 0 1 0 .0332.12696l.33398-.0879a.06615245.06615245 0 0 0-.0293-.12891zM-178.05469 274.19727a.06615245.06615245 0 0 0-.01.002l-.33985.10547a.06641745.06641745 0 1 0 .0391.12695l.33984-.10547a.06615245.06615245 0 0 0-.0293-.1289zM-177.91992 274.375a.06615245.06615245 0 0 0-.01.002l-.33398.0879a.0665583.0665583 0 1 0 .0332.12891l.33399-.0879a.06647137.06647137 0 0 0-.0234-.13086zM-177.79297 274.54492a.06615245.06615245 0 0 0-.0117.004l-.33789.10351a.06642223.06642223 0 1 0 .0391.12696l.3379-.10547a.06615245.06615245 0 0 0-.0273-.12891zM-177.6582 274.72266a.06615245.06615245 0 0 0-.0117.002l-.33399.0879a.06681472.06681472 0 1 0 .0352.12891l.33203-.0879a.06630722.06630722 0 0 0-.0215-.13086zM-177.49805 274.85742a.06615245.06615245 0 0 0-.0117.004l-.33789.10547a.06615245.06615245 0 1 0 .0391.125l.33984-.10547a.06615245.06615245 0 0 0-.0293-.12891zM-177.36914 275.03711a.06615245.06615245 0 0 0-.006.002l-.33203.0879a.06615245.06615245 0 1 0 .0332.12696l.33399-.0879a.06615245.06615245 0 0 0-.0293-.12891zM-177.29297 275.27539a.06615245.06615245 0 0 0-.0176.004l-.33203.0859a.0665583.0665583 0 1 0 .0332.12891l.33399-.0879a.06615245.06615245 0 0 0-.0176-.13086zM-177.21484 275.48633a.06615245.06615245 0 0 0-.01.004l-.33984.10547a.06615245.06615245 0 1 0 .0391.125l.33984-.10547a.06615245.06615245 0 0 0-.0293-.1289zM-177.17188 275.76367a.06615245.06615245 0 0 0-.0176.004l-.33399.0879a.06615245.06615245 0 1 0 .0332.12695l.33398-.0879a.06615245.06615245 0 0 0-.0156-.13086zM-177.23047 276.02734a.06615245.06615245 0 0 0-.0117.004l-.18554.0723a.06618579.06618579 0 1 0 .0488.12304l.18555-.0723a.06615245.06615245 0 0 0-.0371-.12696zM-177.10547 277.46094a.06615245.06615245 0 0 0-.0312.11328l.50195.49414a.06629126.06629126 0 0 0 .0937-.0937l-.50195-.49414a.06615245.06615245 0 0 0-.0625-.0195z" color="#000" font-family="sans-serif" font-weight="400" overflow="visible" white-space="normal"/><path d="M-180.07415 278.36871c-.0452.0452-.12288.0247-.16809-.0205-.0452-.0452-.0503-.13092-.005-.17613.0452-.0452.13601-.0408.18123.004.0452.0452.0371.14703-.008.19221zM-180.70233 279.25034c-.0452.0452-.12288.0247-.16809-.0205-.0452-.0452-.0503-.13092-.005-.17613.0452-.0452.13601-.0408.18123.004.0452.0452.0371.14703-.008.19221z"/></g></svg>