<svg xmlns="http://www.w3.org/2000/svg" data-name="Layer 1" viewBox="0 0 512 512"><path fill="#f2f2f2" d="M336.5,414.5h-236V97.5L322.93675,12.67242A10,10,0,0,1,336.5,22.01605Z"/><path fill="#dedede" d="M322.93677,12.67236,291.5,24.661V414.5h45V22.01611A10,10,0,0,0,322.93677,12.67236Z"/><path fill="#63ea86" d="M100.5,97.5h301a10,10,0,0,1,10,10v387a10,10,0,0,1-10,10h-301a0,0,0,0,1,0,0V97.5A0,0,0,0,1,100.5,97.5Z"/><path fill="#3ce568" d="M401.5,97.5h-45a9.99987,9.99987,0,0,1,10,10v387a9.99987,9.99987,0,0,1-10,10h45a9.99987,9.99987,0,0,0,10-10v-387A9.99987,9.99987,0,0,0,401.5,97.5Z"/><path fill="#f66" d="M246.00371,175.53539h19.99258a60,60,0,0,1,60,60v16.99592a0,0,0,0,1,0,0H186.00371a0,0,0,0,1,0,0V235.53539A60,60,0,0,1,246.00371,175.53539Z"/><path fill="#ff4e4e" d="M265.99634,175.5354H246.00366c-1.68677,0-3.35229.08728-5.00366.22376a59.99316,59.99316,0,0,1,54.99634,59.77624v16.99585h30V235.5354A60.00008,60.00008,0,0,0,265.99634,175.5354Z"/><rect width="171.991" height="29.998" x="170.005" y="252.531" fill="#fff" rx="14.999"/><path fill="#eee" d="M326.99634,252.53125h-30a14.99912,14.99912,0,0,1,14.999,14.99927h0a14.99913,14.99913,0,0,1-14.999,14.99927h30a14.99913,14.99913,0,0,0,14.999-14.99927h0A14.99912,14.99912,0,0,0,326.99634,252.53125Z"/><circle cx="256" cy="158.036" r="17.499" fill="#fff"/><rect width="42" height="42" x="145.5" y="328.427" fill="#a6f3ba" rx="4"/><rect width="42" height="42" x="145.5" y="417.5" fill="#a6f3ba" rx="4"/><path fill="#272a33" d="M185.00378,290.02883H326.996a22.49806,22.49806,0,0,0,6.5-44.037V235.53469A67.59868,67.59868,0,0,0,278.36267,169.19a24.999,24.999,0,1,0-44.72559,0,67.59869,67.59869,0,0,0-55.1333,66.34472v10.45716a22.49806,22.49806,0,0,0,6.5,44.037Zm70.9961-141.99218a9.999,9.999,0,1,1-9.999,9.999A10.0101,10.0101,0,0,1,255.99988,148.03665Zm-62.4961,87.498a52.55992,52.55992,0,0,1,52.5-52.5H265.996a52.55992,52.55992,0,0,1,52.5,52.5v9.4961H193.50378Zm-8.5,24.4961H326.996a7.499,7.499,0,1,1,0,14.998H185.00378a7.499,7.499,0,0,1,0-14.998Zm181.4961,191.96875h-134a7.5,7.5,0,1,0,0,15h134a7.5,7.5,0,1,0,0-15Zm0-131.07324h-134a7.5,7.5,0,0,0,0,15h134a7.5,7.5,0,0,0,0-15Zm-179,89.07324h-42a7.49943,7.49943,0,0,0-7.5,7.5v42a7.49943,7.49943,0,0,0,7.5,7.5h42a7.49943,7.49943,0,0,0,7.5-7.5v-42A7.49943,7.49943,0,0,0,187.49988,409.99954Zm-7.5,42h-27v-27h27Zm221.5-362h-57.5V22.01516A17.50053,17.50053,0,0,0,320.26355,5.66458L97.827,90.49172c-.03174.01209-.06079.02808-.09229.04053-.14673.05835-.28979.12317-.43188.19031-.08911.04187-.17847.08264-.26514.12756-.11939.06238-.23511.13037-.35059.19886-.10327.06079-.20678.12072-.30615.18591-.08984.0592-.17578.12317-.26294.186-.11474.08277-.22949.16492-.33862.25342-.06934.05615-.13452.1167-.20166.17517-.11621.1012-.23193.20227-.34107.30982-.06225.0614-.12011.12707-.18017.19079-.10352.1095-.20728.21875-.30371.334-.06665.07959-.12769.16369-.19116.24609-.08033.10449-.16211.208-.23658.31653-.07324.10583-.13916.21667-.20654.32629-.05615.09107-.1145.18042-.1665.27369-.07178.12866-.1355.26171-.19971.39489-.03955.08167-.08154.162-.11816.245-.06031.13745-.11231.279-.1648.42077-.03174.08631-.06616.17151-.09473.25892-.043.13122-.07812.2655-.114.39978-.02832.10607-.05811.21154-.082.31909-.02515.1145-.04395.23083-.06372.34729-.02295.13379-.04566.26733-.06128.40259-.01123.09606-.01734.19335-.0249.29052-.01221.15772-.02173.31543-.02393.47437-.00024.03345-.00488.06592-.00488.09961v407a7.49943,7.49943,0,0,0,7.5,7.5h301a17.52,17.52,0,0,0,17.5-17.5v-387A17.52,17.52,0,0,0,401.49988,89.99954ZM325.60925,19.6802a2.49932,2.49932,0,0,1,3.39063,2.335V89.99954H141.2157Zm78.39063,474.81934a2.50232,2.50232,0,0,1-2.5,2.5h-293.5v-392h293.5a2.50232,2.50232,0,0,1,2.5,2.5Zm-37.5-131.57324h-134a7.5,7.5,0,0,0,0,15h134a7.5,7.5,0,0,0,0-15Zm-179-42h-42a7.49943,7.49943,0,0,0-7.5,7.5v42a7.49944,7.49944,0,0,0,7.5,7.5h42a7.49944,7.49944,0,0,0,7.5-7.5v-42A7.49943,7.49943,0,0,0,187.49988,320.9263Zm-7.5,42h-27v-27h27Zm186.5,47.07324h-134a7.5,7.5,0,1,0,0,15h134a7.5,7.5,0,1,0,0-15Z"/></svg>