<svg xmlns="http://www.w3.org/2000/svg" data-name="Layer 1" viewBox="0 0 512 512"><path fill="#37b678" d="M232.69776,234.82617c1.28125,3.752-.5791-12.14648-4.24609-10.63965l-36.98047,15.2002a7.50056,7.50056,0,0,1-10.24805-5.69336c-6.46484-38.46191-40.90185-63.334-41.24853-63.58008a7.50032,7.50032,0,0,1,3.7998-13.59375,92.50787,92.50787,0,0,1,34.77393,4.34375,115.82841,115.82841,0,0,0-38.749-51.8789A7.49975,7.49975,0,0,1,143.73,95.52344a90.37848,90.37848,0,0,1,42.33105,7.16015,109.43721,109.43721,0,0,0-1.15722-12.56445,111.45887,111.45887,0,0,0-15.94141-42.708,7.50043,7.50043,0,0,1,8.21094-11.24707,85.25433,85.25433,0,0,1,41.6582,24.75,84.25966,84.25966,0,0,1,9.957,13.19532A340.37922,340.37922,0,0,1,251.01124,9.81152a7.50108,7.50108,0,0,1,6.748-4.35449h.06055a7.5002,7.5002,0,0,1,6.75684,4.24512,286.99941,286.99941,0,0,1,22.03418,64.2539,88.10521,88.10521,0,0,1,10.26953-13.11914,89.22119,89.22119,0,0,1,41.48828-24.64648,7.49965,7.49965,0,0,1,8.29785,11.2373,109.72483,109.72483,0,0,0-15.92676,42.666h0a107.252,107.252,0,0,0-1.06738,11.59961,94.74741,94.74741,0,0,1,39.10547-6.17969,7.5,7.5,0,0,1,4.01465,13.50684,109.71509,109.71509,0,0,0-23.87891,24.29687h0a109.18545,109.18545,0,0,0-14.23535,27.39453,93.02,93.02,0,0,1,34.16992-4.19336,7.50048,7.50048,0,0,1,3.81738,13.59473c-.34765.2461-34.78418,25.11817-41.249,63.58008a7.50048,7.50048,0,0,1-10.24414,5.69531l-37.13965-15.24023c-3.68359-1.51172-5.54394,14.36133-4.23633,10.59961ZM312.31983,181h0Zm11-92h0Z"/><path fill="#00a653" d="M159.97461 180.11328a7.50032 7.50032 0 0 1 3.7998-13.59375 92.50785 92.50785 0 0 1 34.77393 4.34375 115.82848 115.82848 0 0 0-38.749-51.8789A7.49975 7.49975 0 0 1 163.73 105.52344a90.3785 90.3785 0 0 1 42.33106 7.16015 109.43722 109.43722 0 0 0-1.15723-12.56445 111.45854 111.45854 0 0 0-15.94141-42.708 7.50043 7.50043 0 0 1 8.21094-11.24707c2.13184.5437 4.44971 1.225 6.89966 2.07288a86.42452 86.42452 0 0 0-26.89966-12.07288 7.50043 7.50043 0 0 0-8.21094 11.24707 111.45854 111.45854 0 0 1 15.94141 42.708 109.43722 109.43722 0 0 1 1.15723 12.56445A90.3785 90.3785 0 0 0 143.73 95.52344a7.49975 7.49975 0 0 0-3.93066 13.46094 115.82848 115.82848 0 0 1 38.749 51.8789 92.50785 92.50785 0 0 0-34.77393-4.34375 7.50032 7.50032 0 0 0-3.7998 13.59375c.34668.2461 34.78369 25.11817 41.24853 63.58008a7.50056 7.50056 0 0 0 10.24805 5.69336l8.0625-3.314C190.23926 201.98035 160.29785 180.34277 159.97461 180.11328zM252.287 72.43522c4.28954-13.98663 11.737-37.201 17.80332-50.56327q-2.60453-6.119-5.491-12.1227A7.53487 7.53487 0 0 0 257.81982 5.457h-.06054a7.37908 7.37908 0 0 0-6.70528 4.262c-8.06742 17.43144-17.26293 45.87334-22.26542 64.39032 1.06257.903 4.80546 2.83171 8.7707 4.7566A10.58092 10.58092 0 0 0 252.287 72.43522zM248.45166 234.18652l-1.49853.616 3.2434-.00537A1.49142 1.49142 0 0 0 248.45166 234.18652z"/><path fill="#fdd402" d="M386,337.90991v38.17993A127.384,127.384,0,0,1,361.25,451.7a130.14821,130.14821,0,0,1-88.37012,52.1001c-3.55981.45-7.16992.77-10.81982.92993l-5.61011.14014H256a131.87487,131.87487,0,0,1-13.99-.74024,130.19064,130.19064,0,0,1-90.77-51.77A128.20825,128.20825,0,0,1,132.8999,417.6001a125.17056,125.17056,0,0,1-4.12988-14.96,127.68379,127.68379,0,0,1-2.77-26.5503V337.90991A128.29807,128.29807,0,0,1,159.62012,251.49,130.808,130.808,0,0,1,199.29,221.99h.01a130.08141,130.08141,0,0,1,46.30005-12.45c2.40991-.19006,4.83984-.32007,7.29-.37012C253.92993,209.14,254.96,209.13,256,209.13c1.10986,0,2.22.01,3.33008.03992q4.875.12012,9.65991.59009A130.12867,130.12867,0,0,1,309.79,220.63h.01a130.35129,130.35129,0,0,1,38.11987,26.22q1.92,1.905,3.77,3.89a130.16783,130.16783,0,0,1,9.71,11.77,127.75253,127.75253,0,0,1,17.29,32.72A125.65673,125.65673,0,0,1,383.27,311.54,127.99659,127.99659,0,0,1,386,337.90991Z"/><path fill="#fbbf13" d="M231.31006,492.96a131.117,131.117,0,0,1-40.87012-29.56006,128.64722,128.64722,0,0,1-27.54-45.7998,125.17056,125.17056,0,0,1-4.12988-14.96,127.68379,127.68379,0,0,1-2.77-26.5503V337.90991A128.29807,128.29807,0,0,1,189.62012,251.49,130.808,130.808,0,0,1,229.29,221.99h.01a129.96714,129.96714,0,0,1,41.65967-11.99524c-.65772-.07483-1.30909-.1698-1.96973-.23474q-4.78491-.46509-9.65991-.59009C258.22,209.14,257.10986,209.13,256,209.13c-1.04,0-2.07007.01-3.10986.03992-2.4502.05-4.88013.18006-7.29.37012a130.08141,130.08141,0,0,0-46.3,12.45h-.01a129.95839,129.95839,0,0,0-49.16992,41.19995A127.324,127.324,0,0,0,126,337.90991v38.17993a127.68379,127.68379,0,0,0,2.77,26.5503,125.17056,125.17056,0,0,0,4.12988,14.96,128.64722,128.64722,0,0,0,27.54,45.7998,129.98684,129.98684,0,0,0,81.57007,40.73,131.87487,131.87487,0,0,0,13.99.74024h.45l5.61011-.14014c3.03393-.13281,6.03808-.38208,9.011-.71875A130.09377,130.09377,0,0,1,231.31006,492.96Z"/><path fill="#fbbf13" d="M361.25 451.7A130.57445 130.57445 0 0 1 351.68994 463.26q-11.71509-8.5199-23.18994-17.46-5.93994-4.6051-11.8-9.32007-12.045-9.67492-23.77-19.74-5.71472-4.89-11.32983-9.90991Q268.66992 395.41491 256.18994 383.49q-5.4298-5.18994-10.76-10.47-4.66479-4.57508-9.27-9.25-7.60473-7.71021-14.93994-15.5-5.17493-5.47485-10.21-10.98Q199.025 324.165 187.67993 310.73q-4.875-5.74512-9.60986-11.56006-14.40015-17.595-27.94995-35.98a128.33139 128.33139 0 0 1 9.5-11.69995 7.59026 7.59026 0 0 1 1.77 1.72Q174.81507 271.465 189 288.83984q4.72485 5.83521 9.60986 11.59009 11.31006 13.42493 23.25 26.49 5.04016 5.52027 10.21021 10.99 7.24475 7.69519 14.77 15.32007 4.61974 4.69482 9.31982 9.31006 5.34009 5.28 10.77 10.45Q279.365 384.85486 292.28 396.27q5.625 4.99512 11.32007 9.87012 11.44482 9.80969 23.18994 19.21972 5.84985 4.71021 11.79 9.3 11.0548 8.58 22.32983 16.78C361.03 451.52 361.14014 451.60986 361.25 451.7zM324.05005 485.83984A130.59759 130.59759 0 0 1 310.2 493.17993q-8.235-6.83972-16.3999-13.84009-5.74512-4.91967-11.45-9.92993-11.97-10.455-23.74024-21.23-5.57958-5.09985-11.08984-10.25-12.58521-11.74475-24.87012-23.78-5.38476-5.25-10.7-10.56982c-1.59985-1.59009-3.18994-3.2002-4.78-4.8q-10.14-10.2301-20.09985-20.69995-5.205-5.4452-10.33008-10.9502Q164.21522 353.705 152.02 339.95q-5.01013-5.64-9.92993-11.32007Q135.205 320.72485 128.48 312.75a128.01572 128.01572 0 0 1 4.41992-16.35986 7.52547 7.52547 0 0 1 3.3501 2.2998q8.77515 10.5 17.81006 20.86011 4.92 5.67 9.91992 11.28 11.985 13.485 24.33008 26.68994 5.11486 5.48987 10.31006 10.92993 9.52478 10.00525 19.21 19.77 2.68506 2.71509 5.3999 5.40991 5.295 5.31006 10.68994 10.56006Q246.23486 416.235 258.87012 428q5.50488 5.1449 11.07983 10.22 11.7301 10.6952 23.67993 21.11987 5.68506 4.98011 11.41016 9.87012 8.58 7.33521 17.24 14.51A7.42591 7.42591 0 0 1 324.05005 485.83984zM272.87988 503.80005c-3.55981.45-7.16992.77-10.81982.92993l-5.61011.14014q-4.75488-3.84009-9.46-7.79Q235.08008 487.11987 223.6499 476.52q-5.58-5.14527-11.04-10.46Q200.50513 454.31494 189.09009 441.95q-1.57507-1.69482-3.13013-3.3999Q182.4502 434.71 179.02 430.79q-12.21021-13.845-23.62012-28.41992-4.61975-5.9253-9.09985-11.94019Q135.74 376.24 126 361.5V341.02a7.50647 7.50647 0 0 1 6.83008 3.45c1.31982 2.07007 2.6499 4.13989 4 6.18994q10.27478 15.75 21.5498 30.87012 4.47 6.015 9.1001 11.91992 11.22 14.34009 23.25 27.96 3.13513 3.55518 6.31006 7.04 1.875 2.05518 3.77 4.1001 11.53491 12.42 23.79 24.23 5.44482 5.28 11.04 10.3999 11.63964 10.71021 23.81982 20.78 5.295 4.39527 10.68994 8.66016a7.12225 7.12225 0 0 1 1.17017 1.15991A7.45634 7.45634 0 0 1 272.87988 503.80005zM382.93994 403.98a126.76828 126.76828 0 0 1-4.25 14.80005 7.57917 7.57917 0 0 1-2.60986-1.22q-7.40991-5.41517-14.73-11-5.95533-4.515-11.8501-9.18018-10.7699-8.47485-21.29-17.31982-5.74512-4.81494-11.40991-9.74-12.8551-11.16028-25.27-22.79-5.47523-5.13025-10.8501-10.3501c-1.49-1.42993-2.97-2.87988-4.43994-4.32983-6.98-6.87012-13.57007-13.5-19.84985-19.98Q251.06507 307.34985 246.03 301.98c-8.37012-8.93994-16.19995-17.68994-23.71-26.51q-4.95007-5.805-9.74-11.66992c-8.89014-10.89014-17.4502-22.03-26.09009-33.90015a5.39491 5.39491 0 0 1-.38013-.58984A129.04475 129.04475 0 0 1 199.29 221.99h.01c7.63989 10.48 15.24 20.4 23.09009 30.09q4.79993 5.94012 9.75 11.78c7.58984 8.96008 15.48974 17.84 23.94995 26.91q5.03979 5.40015 10.36987 10.91992c6.3999 6.63013 13.14014 13.41992 20.30005 20.46q2.01013 1.9801 4.04 3.93994 5.36975 5.23536 10.85986 10.36011 12.29992 11.54992 25.07007 22.63013 5.655 4.91967 11.41016 9.73Q348.1 377.16479 358.29 385.22q5.8949 4.66517 11.85986 9.2Q376.51026 399.26489 382.93994 403.98zM386 344.29V360.98c-.15991.01-.33008.02-.5.02a7.4627 7.4627 0 0 1-4.66992-1.62988Q378.88 357.8247 376.93994 356.26q-8.48986-6.85511-16.78-14.01-5.70008-4.89-11.28-9.91992-12.31494-11.05518-24.05981-22.68994-5.3551-5.31006-10.59009-10.72022c-.72-.74-1.43994-1.49-2.1499-2.23q-11.10022-11.595-21.68994-23.76Q285.35 267.17 280.47 261.29 268.11 246.46985 256.62012 230.98q-4.78528-6.43506-9.39014-12.96c-.29-.4-.58008-.8-.85986-1.2a7.51664 7.51664 0 0 1-.77-7.28l7.29-.37012C253.92993 209.14 254.96 209.13 256 209.13c1.10986 0 2.22.01 3.33008.03992q2.97 4.21509 6.02 8.38013 11.72973 16.08 24.43994 31.48 4.89 5.93994 9.92993 11.76 11.28 13.08 23.2 25.52c.28.29.56006.58984.8501.87988q5.22 5.4452 10.58984 10.78 11.58033 11.50525 23.73023 22.47 5.58 5.04017 11.28 9.9502Q377.57508 337.48511 386 344.29z"/><path fill="#fbbf13" d="M361.3999 262.51q-13.03491 18.015-27.04 35.46-4.72485 5.88025-9.53979 11.67017Q313.51 323.2749 301.65991 336.45q-5.00976 5.595-10.12988 11.08008-4.26014 4.6051-8.61011 9.1499-7.875 8.25-15.99 16.31006-5.32507 5.295-10.74 10.5-10.9497 10.53-22.27 20.7-5.595 5.02515-11.27 9.96-10.7699 9.375-21.83984 18.40015-5.82019 4.75488-11.72 9.3999-13.39527 10.57508-27.17017 20.61011a7.80548 7.80548 0 0 1-1.48.83984 129.30946 129.30946 0 0 1-9.2-11.04 7.61155 7.61155 0 0 1 1.84009-1.91992q13.14-9.56982 25.93994-19.6499 5.8949-4.63513 11.71-9.38013 10.75488-8.74475 21.22-17.82983 5.68506-4.92 11.28-9.9502 11.28-10.10961 22.2-20.60986 5.41517-5.18994 10.73-10.48 8.07019-8.01013 15.92017-16.22 4.33483-4.53 8.59985-9.14014 5.11524-5.48987 10.12012-11.09009Q302.785 312.755 314.23 298.91992q4.81494-5.81982 9.54-11.73 13.7699-17.235 26.6499-35.07995a7.543 7.543 0 0 1 1.27-1.37A130.16783 130.16783 0 0 1 361.3999 262.51zM322.76 227.38a7.28928 7.28928 0 0 1-1.01 2.2699Q311.205 245.505 299.72 260.79q-4.57507 6.11994-9.32983 12.13989-11.5503 14.71509-23.93018 28.76-4.96509 5.655-10.06982 11.18018-2.19031 2.39978-4.43018 4.77-9.72 10.33484-19.88989 20.26977Q226.7 343.15991 221.22 348.27 210.15015 358.60486 198.62012 368.45q-5.71509 4.875-11.55 9.63013-9.64489 7.875-19.59009 15.36987-5.985 4.53-12.08008 8.92017Q145.17017 409.75 134.6499 416.74a7.48379 7.48379 0 0 1-1.75.86011 125.17056 125.17056 0 0 1-4.12988-14.96q8.86487-5.95533 17.53-12.21021 6.08972-4.37988 12.07983-8.8999 9.31531-7.03529 18.36011-14.40015 5.85022-4.72485 11.57007-9.60986 11.595-9.8551 22.7-20.23 5.47485-5.12988 10.84985-10.37012 9.79542-9.58483 19.18018-19.56006c1.67993-1.77978 3.33984-3.57983 4.99-5.37988q5.09985-5.54992 10.06006-11.21Q268.705 276.41492 280.47 261.29q4.73987-6.07507 9.32007-12.26 10.095-13.59009 19.46-27.68005.25488-.375.54-.72h.01A130.276 130.276 0 0 1 322.76 227.38zM126 341.02v14.96c.17.01.34.02.51.02a7.48586 7.48586 0 0 0 4.08-1.21c2.09-1.36 4.17-2.73 6.24-4.13q7.71-5.19 15.19-10.71 6.06-4.44 11.96-9.12 12.21-9.63 23.7-20.1 5.55-5.04 10.93-10.3 8.43-8.19 16.4-16.84 3.705-4.005 7.31-8.12 5.01-5.715 9.82-11.61 13.005-15.855 24.48-32.88 4.5-6.63 8.73-13.43 1.29-2.07 2.56-4.15a7.46364 7.46364 0 0 0 1.08-3.64q-4.785-.465-9.66-.59c-1.11-.03-2.22-.04-3.33-.04-1.04 0-2.07.01-3.11.04-1.85 2.97-3.73 5.93-5.66 8.85q-11.565 17.625-24.84 34.06-4.785 5.955-9.81 11.72-4.215 4.875-8.59 9.61-7.29 7.905-14.99 15.43-5.37 5.28-10.93 10.33-11.625 10.65-24.01 20.38-5.895 4.65-11.97 9.08-7.905 5.79-16.09 11.22zM383.27 311.54q-6.795 9.52515-13.8999 18.8501-4.545 5.97-9.21021 11.85986-10.69482 13.53-22.01977 26.56006-4.89039 5.66967-9.93018 11.25-9 10.00488-18.31982 19.6499-3.12012 3.24024-6.29 6.43018-5.28 5.36975-10.67017 10.59985-11.295 11.01014-22.98 21.48-5.625 5.02515-11.34009 9.96-11.26464 9.705-22.96972 19-5.94031 4.71021-11.99024 9.34009-10.9497 8.37012-22.33984 16.43994A130.646 130.646 0 0 1 187.45 485.52a7.37747 7.37747 0 0 1 2.42017-2.84009q11.595-8.15991 22.73974-16.61987 6.06006-4.57507 11.99024-9.28 11.68506-9.22523 22.91992-18.8501 5.73011-4.905 11.3501-9.92993 11.56494-10.33521 22.73-21.16992Q286.98486 401.62475 292.28 396.27q3.43506-3.46509 6.82983-6.98 9-9.31494 17.69019-18.97 5.03979-5.56531 9.92993-11.24 11.38513-13.11036 22.1499-26.75 4.68018-5.89527 9.21021-11.89014 8.35473-10.97973 16.28-22.26a7.424 7.424 0 0 1 4.31982-2.95A125.65673 125.65673 0 0 1 383.27 311.54zM386 349.02v21.28Q378.43994 382.6 370.1499 394.41992q-4.3048 6.15015-8.7998 12.14014-10.845 14.48986-22.77 28.09985Q333.63 440.31494 328.5 445.80005q-2.77515 2.985-5.60986 5.90991-8.68506 8.985-17.8501 17.5-5.53491 5.15991-11.24 10.12988Q282.85 488.91 271.32007 497.78q-4.59009 3.54016-9.26 6.95l-5.61011.14014H256a131.87487 131.87487 0 0 1-13.99-.74024A7.48936 7.48936 0 0 1 245.2 498.3501c.6001-.42017 1.2-.84009 1.79-1.27q6.31494-4.43994 12.47-9.12012 11.74512-8.8949 22.89014-18.55 5.72973-4.92 11.27978-10.07007 9.51013-8.75976 18.48-18.0498 2.31006-2.38513 4.59009-4.81006 5.13025-5.47485 10.09009-11.12012 11.8949-13.53 22.71-27.98 4.485-6 8.79-12.15991 9.85473-14.11486 18.6499-28.96c.7002-1.17993 1.39014-2.3501 2.07007-3.53A7.47644 7.47644 0 0 1 386 349.02z"/></svg>