<svg xmlns="http://www.w3.org/2000/svg" viewBox="0 0 64
64"><rect width="56" height="46" x="4" y="15"
fill="#00ddc2"/><rect width="32" height="28" x="24" y="29"
fill="#57a4ff"/><path fill="#ffda44"
d="M60,4V7H4V4A1,1,0,0,1,5,3H59A1,1,0,0,1,60,4Z"/><rect
width="58" height="8" x="3" y="7" fill="#ff7956"/><rect
width="12" height="3" x="8" y="36" fill="#acabb1"/><rect
width="12" height="3" x="8" y="33" fill="#e0e0e2"/><rect
width="12" height="22" x="8" y="39" fill="#c6c5ca"/><path
fill="#2d2d30"
d="M52,16H4v6a4,4,0,0,0,8,0,4,4,0,0,0,8,0,4,4,0,0,0,8,0,4,4,0,0,0,8,0,4,4,0,0,0,8,0,4,4,0,0,0,8,0,4,4,0,0,0,8,0V16Z"/><path
fill="#ffda44" d="M20 15v6a4 4 0 0 1-8 0V15zM36 15v6a4 4 0 0
1-8 0V15zM52 15v6a4 4 0 0 1-8 0V15z"/><path fill="#ff9478"
d="M60 15v6a4 4 0 0 1-8 0V15zM44 15v6a4 4 0 0 1-8 0V15zM28
15v6a4 4 0 0 1-8 0V15zM12 15v6a4 4 0 0 1-8 0V15z"/><polygon
fill="#81bbff" points="33 29 24 37 24 42 38 29 33
29"/><polygon fill="#81bbff" points="44.882 29 24 48.094 24
55 52 29 44.882 29"/><rect width="11" height="3" x="5" y="9"
fill="#ff9f85" rx="1.5"/><polygon fill="#fff" points="9 36 8
36 10 33 11 33 9 36"/><polygon fill="#fff" points="12 36 11
36 13 33 14 33 12 36"/><path fill="#ffe477"
d="M40,32v3a8.014,8.014,0,0,0-5.66,2.34l-2.12-2.12A10.965,10.965,0,0,1,40,32Z"/><path
fill="#ffb655"
d="M29,43a10.965,10.965,0,0,1,3.22-7.78l2.12,2.12A8.014,8.014,0,0,0,32,43Z"/><path
fill="#ffe477"
d="M32.22,50.78A10.965,10.965,0,0,1,29,43h3a8.014,8.014,0,0,0,2.34,5.66Z"/><path
fill="#ffb655"
d="M34.34,48.66A8.014,8.014,0,0,0,40,51v3a10.965,10.965,0,0,1-7.78-3.22Z"/><path
fill="#ffe477"
d="M40,51a8.014,8.014,0,0,0,5.66-2.34l2.12,2.12A10.965,10.965,0,0,1,40,54Z"/><path
fill="#ffb655"
d="M51,43a10.965,10.965,0,0,1-3.22,7.78l-2.12-2.12a8.063,8.063,0,0,0,2.33-5.21v-.04c.01-.14.01-.27.01-.41Z"/><path
fill="#ffe477"
d="M52.33,38.23l-2.81,1.03-.01-.01a8.027,8.027,0,0,0-4.13-4.51l1.27-2.72A11,11,0,0,1,52.33,38.23Z"/><path
fill="#ff6243"
d="M40,35v8l-5.66-5.66A8.014,8.014,0,0,1,40,35Z"/><path
fill="#ee8700"
d="M40,43H32a8.014,8.014,0,0,1,2.34-5.66Z"/><path
fill="#ff6243"
d="M40,43l-5.66,5.66A8.014,8.014,0,0,1,32,43Z"/><path
fill="#ee8700"
d="M40,43v8a8.014,8.014,0,0,1-5.66-2.34Z"/><path
fill="#ff6243"
d="M40,43l5.66,5.66A8.014,8.014,0,0,1,40,51Z"/><path
fill="#ee8700"
d="M40,43h8c0,.14,0,.27-.01.41v.04a8.063,8.063,0,0,1-2.33,5.21Z"/><path
fill="#ff6243"
d="M49.51,39.25,42,41.98l3.38-7.24A8.027,8.027,0,0,1,49.51,39.25Z"/><rect
width="2" height="4" x="10" y="47"/><path
d="M61,16a1,1,0,0,0,1-1V7a1,1,0,0,0-1-1V4a2.006,2.006,0,0,0-2-2H5A2.006,2.006,0,0,0,3,4V6A1,1,0,0,0,2,7v8a1,1,0,0,0,1,1V60H2v2H62V60H61ZM5,4H59V6H5ZM19,60H9V40H19Zm0-22H9V37H19Zm0-3H9V34H19ZM59,60H21V33a1,1,0,0,0-1-1H8a1,1,0,0,0-1,1V60H5V24.97A4.924,4.924,0,0,0,8,26a4.994,4.994,0,0,0,4-2.03,4.956,4.956,0,0,0,8,0,4.956,4.956,0,0,0,8,0,4.956,4.956,0,0,0,8,0,4.956,4.956,0,0,0,8,0,4.956,4.956,0,0,0,8,0A4.994,4.994,0,0,0,56,26a4.924,4.924,0,0,0,3-1.03ZM5,21V16h6v5a3,3,0,0,1-6,0Zm8,0V16h6v5a3,3,0,0,1-6,0Zm8,0V16h6v5a3,3,0,0,1-6,0Zm8,0V16h6v5a3,3,0,0,1-6,0Zm8,0V16h6v5a3,3,0,0,1-6,0Zm8,0V16h6v5a3,3,0,0,1-6,0Zm14,0a3,3,0,0,1-6,0V16h6Zm1-7H4V8H60Z"/><path
d="M56,28H24a1,1,0,0,0-1,1V57a1,1,0,0,0,1,1H56a1,1,0,0,0,1-1V29A1,1,0,0,0,56,28ZM55,56H25V30H55Z"/><path
d="M40,55A11.994,11.994,0,0,0,52,43a1,1,0,0,0-1-1H44.883l4.868-1.771a.906.906,0,0,0,.112-.035l2.809-1.029a1,1,0,0,0,.6-1.283,11.955,11.955,0,0,0-6.2-6.764.993.993,0,0,0-.764-.033,1,1,0,0,0-.565.517L41.1,41.562a.969.969,0,0,0-.083.438H41V32a1,1,0,0,0-1-1,12,12,0,1,0,0,24Zm8.934-11h1.017a9.9,9.9,0,0,1-2.206,5.331l-.717-.717A9.052,9.052,0,0,0,48.934,44ZM47.109,33.4A9.927,9.927,0,0,1,51,37.648l-.946.347a8.944,8.944,0,0,0-3.371-3.681Zm-2.774,5.95,1.5-3.211A6.956,6.956,0,0,1,48.16,38.68l-4.231,1.539ZM46.928,44A7.054,7.054,0,0,1,45.6,47.188L42.414,44ZM41,45.414,44.188,48.6A6.959,6.959,0,0,1,41,49.921Zm0,6.526a8.943,8.943,0,0,0,4.616-1.91l.712.712A9.919,9.919,0,0,1,41,52.951Zm-2,1.011a9.911,9.911,0,0,1-5.328-2.209l.709-.708A8.951,8.951,0,0,0,39,51.938ZM33.08,44h4.506l-3.194,3.193A6.956,6.956,0,0,1,33.08,44ZM39,49.92a6.962,6.962,0,0,1-3.194-1.312L39,45.414Zm0-9.334L35.813,37.4A6.96,6.96,0,0,1,39,36.07Zm0-7.537V34.06a8.943,8.943,0,0,0-4.616,1.91l-.712-.712A9.919,9.919,0,0,1,39,33.049Zm-4.6,5.763L37.586,42H33.079A6.955,6.955,0,0,1,34.4,38.812Zm-2.142-2.143.714.714A8.94,8.94,0,0,0,31.06,42H30.049A9.909,9.909,0,0,1,32.255,36.669ZM31.062,44a8.938,8.938,0,0,0,1.9,4.619l-.712.712A9.909,9.909,0,0,1,30.049,44Z"/></svg>
